<svg aria-label="" class="_8-yf5 " color="#262626" fill="#262626" height="12" role="img" viewBox="0 0 48 48" width="12"><path clip-rule="evenodd" d="M 45 1.5 H 3 c -0.8 0 -1.5 0.7 -1.5 1.5 v 42 c 0 0.8 0.7 1.5 1.5 1.5 h 42 c 0.8 0 1.5 -0.7 1.5 -1.5 V 3 c 0 -0.8 -0.7 -1.5 -1.5 -1.5 z m -40.5 3 h 11 v 11 h -11 v -11 z m 0 14 h 11 v 11 h -11 v -11 z m 11 25 h -11 v -11 h 11 v 11 z m 14 0 h -11 v -11 h 11 v 11 z m 0 -14 h -11 v -11 h 11 v 11 z m 0 -14 h -11 v -11 h 11 v 11 z m 14 28 h -11 v -11 h 11 v 11 z m 0 -14 h -11 v -11 h 11 v 11 z m 0 -14 h -11 v -11 h 11 v 11 z" fill-rule="evenodd"></path></svg>